<svg width="250" height="70" xmlns="http://www.w3.org/2000/svg"><svg xmlns="http://www.w3.org/2000/svg" color-interpolation-filters="sRGB" version="1.0" viewBox="0 71 345 100" style="margin:auto" width="250" height="70"><rect width="100%" height="100%" fill="none" class="background"/><g class="linesvg colorfeffff svgShape"><path class="color000 svgShape" d="M15.935 83.49h308.13v5H15.935zm0 78.02h308.13v5H15.935z"/><g class="color000 svgShape"><g data-gra="path-name" class="color000 svgShape"><path d="M34.295 136.99q-4.29 0-7.7-1.31-3.41-1.32-5.77-3.88-2.36-2.56-3.63-6.25-1.26-3.68-1.26-8.47 0-4.78 1.45-8.46 1.46-3.69 3.99-6.25 2.53-2.55 5.94-3.87 3.41-1.32 7.32-1.32 2.36 0 4.29.35 1.92.36 3.35.8 1.43.44 2.36.93.94.5 1.32.72l-2.03 5.67q-1.32-.83-3.77-1.57-2.45-.75-5.31-.75-2.47 0-4.62.86-2.14.85-3.71 2.55-1.57 1.71-2.44 4.29-.89 2.59-.89 6 0 3.03.69 5.55.69 2.54 2.12 4.38 1.43 1.84 3.63 2.86 2.2 1.02 5.28 1.02 3.69 0 6-.75 2.3-.74 3.57-1.4l1.87 5.67q-.66.43-1.79.87-1.12.45-2.67.86-1.54.41-3.46.66-1.92.24-4.13.24Zm43.13-15.23q0 3.41-.99 6.21-1 2.81-2.81 4.79t-4.37 3.08q-2.56 1.1-5.64 1.1-3.08 0-5.61-1.1-2.53-1.1-4.34-3.08-1.82-1.98-2.84-4.79-1.01-2.8-1.01-6.21t1.01-6.19q1.02-2.78 2.86-4.76 1.84-1.98 4.38-3.05 2.53-1.07 5.55-1.07t5.58 1.07q2.56 1.07 4.37 3.05 1.82 1.98 2.84 4.76 1.02 2.78 1.02 6.19Zm-6.83 0q0-4.29-1.84-6.79-1.84-2.51-5.14-2.51t-5.14 2.51q-1.84 2.5-1.84 6.79 0 4.35 1.84 6.87 1.84 2.54 5.14 2.54t5.14-2.54q1.84-2.52 1.84-6.87Zm18.92-.05q0 4.4 2.09 6.9 2.1 2.5 5.78 2.5 1.6 0 2.72-.14 1.13-.13 1.85-.3v-16.5q-.88-.61-2.34-1.13-1.46-.52-3.11-.52-3.63 0-5.31 2.47-1.68 2.48-1.68 6.72Zm19.09-28.22v41.8q-1.98.6-4.98 1.1-2.99.49-6.3.49-3.4 0-6.1-1.04-2.7-1.05-4.59-3-1.9-1.95-2.92-4.73-1.01-2.78-1.01-6.24 0-3.41.85-6.19.85-2.78 2.5-4.76t4.02-3.05q2.36-1.07 5.44-1.07 2.09 0 3.69.49 1.59.5 2.75 1.11V94.59l6.65-1.1Zm6.88 28.44q0-3.8 1.12-6.66 1.13-2.86 3-4.76 1.87-1.89 4.29-2.86 2.42-.96 4.95-.96 5.94 0 9.27 3.68 3.33 3.69 3.33 11.01 0 .55-.03 1.23-.03.69-.09 1.24h-18.97q.28 3.46 2.45 5.36 2.17 1.9 6.3 1.9 2.41 0 4.42-.44t3.17-.93l.88 5.44q-.56.28-1.52.58-.96.3-2.2.55-1.23.25-2.66.41-1.43.16-2.92.16-3.79 0-6.6-1.12-2.8-1.13-4.62-3.14-1.81-2-2.7-4.73-.87-2.72-.87-5.96Zm6.93-2.97h12.37q0-1.38-.38-2.62-.39-1.24-1.13-2.14-.75-.91-1.82-1.43-1.07-.53-2.55-.53-1.55 0-2.7.58-1.16.58-1.95 1.51-.8.94-1.24 2.15-.44 1.21-.6 2.48Z" class="color000 svgShape"/><path d="M154.945 97.67q8.25 0 12.62 3.02 4.37 3.03 4.37 9.25 0 7.75-7.64 10.5 1.04 1.27 2.37 3.08 1.32 1.81 2.69 3.93 1.38 2.12 2.64 4.35 1.26 2.22 2.26 4.37h-7.76q-1.05-1.98-2.26-3.99-1.2-2.01-2.44-3.9-1.24-1.9-2.45-3.58-1.21-1.67-2.26-2.99-.76.05-1.32.05h-4.4v14.41h-6.92V98.61q2.52-.56 5.39-.75 2.85-.19 5.11-.19Zm.49 5.99q-2.19 0-4.07.17v12.32h3.03q2.53 0 4.46-.28 1.92-.27 3.21-.99 1.29-.71 1.95-1.92.66-1.21.66-3.08 0-1.76-.66-2.97-.66-1.21-1.89-1.92-1.24-.72-2.95-1.02-1.7-.31-3.74-.31Zm22.28 18.27q0-3.8 1.13-6.66 1.13-2.86 3-4.76 1.87-1.89 4.29-2.86 2.42-.96 4.94-.96 5.95 0 9.27 3.68 3.33 3.69 3.33 11.01 0 .55-.03 1.23-.02.69-.08 1.24h-18.97q.27 3.46 2.44 5.36 2.18 1.9 6.3 1.9 2.42 0 4.43-.44t3.16-.93l.88 5.44q-.55.28-1.51.58-.97.3-2.2.55-1.24.25-2.67.41-1.43.16-2.91.16-3.8 0-6.6-1.12-2.81-1.13-4.62-3.14-1.82-2-2.7-4.73-.88-2.72-.88-5.96Zm6.93-2.97h12.38q0-1.38-.39-2.62-.38-1.24-1.13-2.14-.74-.91-1.81-1.43-1.07-.53-2.56-.53-1.54 0-2.69.58-1.16.58-1.96 1.51-.79.94-1.23 2.15-.44 1.21-.61 2.48Zm39.16 17.21h-5.72q-2.75-5.67-5.64-13.01-2.88-7.34-5.25-15.76h7.1q.6 2.43 1.4 5.2.8 2.78 1.7 5.56.91 2.78 1.87 5.39.97 2.61 1.79 4.7.83-2.09 1.76-4.7.94-2.61 1.84-5.39.91-2.78 1.74-5.56.82-2.77 1.43-5.2h6.87q-2.36 8.42-5.25 15.76t-5.64 13.01Zm22.55-28.77v28.77h-6.65V107.4h6.65Zm.71-8.41q0 1.87-1.21 2.97t-2.85 1.1q-1.71 0-2.92-1.1t-1.21-2.97q0-1.92 1.21-3.02t2.92-1.1q1.64 0 2.85 1.1 1.21 1.1 1.21 3.02Zm6.17 22.94q0-3.8 1.12-6.66 1.13-2.86 3-4.76 1.87-1.89 4.29-2.86 2.42-.96 4.95-.96 5.94 0 9.27 3.68 3.32 3.69 3.32 11.01 0 .55-.02 1.23-.03.69-.08 1.24h-18.98q.28 3.46 2.45 5.36 2.17 1.9 6.29 1.9 2.43 0 4.43-.44 2.01-.44 3.16-.93l.88 5.44q-.54.28-1.51.58-.96.3-2.2.55-1.23.25-2.67.41-1.43.16-2.91.16-3.79 0-6.6-1.12-2.8-1.13-4.62-3.14-1.81-2-2.7-4.73-.87-2.72-.87-5.96Zm6.92-2.97h12.38q0-1.38-.38-2.62-.39-1.24-1.13-2.14-.74-.91-1.82-1.43-1.07-.53-2.55-.53-1.55 0-2.7.58-1.15.58-1.95 1.51-.8.94-1.24 2.15-.44 1.21-.61 2.48Zm43.24-.88q-1.27 4.83-2.73 9.43-1.45 4.59-2.88 8.66h-5.45q-1.1-2.53-2.31-5.78-1.21-3.24-2.42-6.93-1.21-3.68-2.42-7.75t-2.37-8.31h7.05q.49 2.31 1.15 4.98.66 2.67 1.38 5.45.71 2.78 1.48 5.41.77 2.64 1.54 4.84.83-2.53 1.62-5.22.8-2.69 1.52-5.39.71-2.69 1.34-5.25.64-2.56 1.13-4.82h5.12q.49 2.26 1.1 4.82.6 2.56 1.29 5.25.68 2.7 1.48 5.39.8 2.69 1.63 5.22.71-2.2 1.48-4.84.77-2.63 1.51-5.41.74-2.78 1.41-5.45.65-2.67 1.15-4.98h6.87q-1.15 4.24-2.36 8.31t-2.42 7.75q-1.21 3.69-2.42 6.93-1.21 3.25-2.36 5.78h-5.39q-1.43-4.07-2.95-8.66-1.51-4.6-2.77-9.43Z" data-gra="path-name-1" class="color000 svgShape"/></g><g data-gra="path-slogan" mask="url(#a)" transform="translate(93.02 142.99)" class="color000 svgShape"><path class="i-icon-bg color000 svgShape" data-gra="graph-name-bg" d="M0 0h153.96v13.52H0z"/><path fill="#00000" d="M23.332 5.413q0 .25-.03.62-.03.36-.09.74-.07.37-.18.7-.12.33-.3.52-.07.08-.45.15-.38.08-.91.16-.54.07-1.15.14-.6.07-1.15.13-.54.05-.94.08-.4.04-.51.04l-.09 2.44q-.36.02-.72 0-.35-.02-.71-.02-.23 0-.47.02-.23.01-.47.03v-2.18q0-1.08-.04-2.18-.04-.99-.07-1.98-.03-.98-.05-1.98 1.21-.08 2.43-.2 1.22-.13 2.44-.13.21 0 .67.04.46.04.96.13.51.09.93.22.43.13.57.29.1.11.16.41.06.31.1.65.04.35.05.68.02.32.02.48Zm-3.28-.08q0-.11-.01-.27-.01-.17-.04-.33-.03-.15-.09-.29-.06-.13-.15-.19-.06-.04-.19-.06-.13-.03-.27-.04-.14-.01-.27-.01-.13-.01-.19-.01-.43 0-.87.05-.43.04-.87.11.03.36.04.7v.67q0 .56.04 1.12.15 0 .53-.02.37-.02.78-.06.41-.04.77-.12.37-.07.5-.2.21-.2.25-.49.04-.28.04-.56Zm42.17 5.92-1.78.27q-.18-.59-.37-1.19-.19-.59-.36-1.18l-2.89.1-.36 1.56h-1.81l.34-3.96q.18-1.97.34-3.95.85-.14 1.69-.24.83-.09 1.69-.09 1.04 0 2.09.04l.36 2.43q.19 1.21.39 2.43.14.96.31 1.9.17.94.36 1.88Zm-5.17-3.64 2.25-.06q-.02-.1-.06-.39-.05-.29-.11-.61t-.13-.59q-.08-.26-.15-.31-.02-.01-.11-.02l-.19-.02q-.1-.02-.19-.02h-.29q-.1 0-.21.01-.11.01-.21.03-.1.02-.14.06-.02.01-.05.15-.04.14-.09.35-.06.2-.11.44-.05.23-.1.44l-.07.36q-.03.16-.04.18Zm41.84 1.2.18 2.19q-1.4.1-2.77.2-1.38.09-2.77.17-.06-2.24-.1-4.45-.03-2.2-.13-4.45.79-.02 1.55-.05.76-.04 1.53-.09-.12.86-.24 1.74-.11.87-.17 1.75-.04.74-.07 1.47-.03.73-.05 1.47.77.02 1.53.02.75 0 1.51.03Zm40.07.42q0 .56-.27.91-.27.34-.76.55-.41.18-1.03.28-.62.1-1.29.14-.67.04-1.31.05-.65.01-1.08.01-.74 0-1.46-.02t-1.46-.07q.03-1.2-.07-2.37.88.03 1.75.04l1.75.04q.34.02.69.03.34.01.7.01h.17q.12 0 .25-.01t.24-.04q.11-.02.17-.07.04-.05.06-.13.01-.09.01-.16 0-.13-.04-.31-.03-.18-.1-.3-.01-.01-.08-.02-.06-.02-.15-.02-.08-.01-.15-.01-.07-.01-.08-.01-.75-.06-1.49-.08-.75-.02-1.5-.08-.34-.04-.7-.07-.35-.04-.66-.13-.29-.08-.5-.37-.2-.29-.32-.66-.13-.37-.18-.74-.05-.38-.05-.63 0-.43.08-.81.08-.38.26-.71.19-.32.47-.58.28-.25.69-.41.7-.27 1.5-.38.81-.1 1.54-.1.87 0 1.72.1.84.11 1.68.27-.01.34-.01.68-.01.33-.01.67t.03.69l.08.68-2.23.04q-1.1.02-2.23.07-.14 0-.38.01t-.46.03q-.22.01-.39.03l-.16.01q-.06.13-.07.26-.01.14-.01.28v.17q.01.11.05.17.02.01.2.03.19.03.42.05.23.02.43.05.21.02.25.02.39.03.91.08t1.07.11q.54.06 1.05.14.5.09.88.21.34.12.62.37.29.25.5.58.21.34.34.71.12.37.12.72Z" class="coloreb4962 svgShape"/></g></g></g><mask id="a"><path fill="#fff" stroke-width="2" class="i-icon-bg colorfff svgShape" data-gra="graph-name-bg" d="M0 0h153.96v13.52H0z"/><path d="M23.332 5.413q0 .25-.03.62-.03.36-.09.74-.07.37-.18.7-.12.33-.3.52-.07.08-.45.15-.38.08-.91.16-.54.07-1.15.14-.6.07-1.15.13-.54.05-.94.08-.4.04-.51.04l-.09 2.44q-.36.02-.72 0-.35-.02-.71-.02-.23 0-.47.02-.23.01-.47.03v-2.18q0-1.08-.04-2.18-.04-.99-.07-1.98-.03-.98-.05-1.98 1.21-.08 2.43-.2 1.22-.13 2.44-.13.21 0 .67.04.46.04.96.13.51.09.93.22.43.13.57.29.1.11.16.41.06.31.1.65.04.35.05.68.02.32.02.48Zm-3.28-.08q0-.11-.01-.27-.01-.17-.04-.33-.03-.15-.09-.29-.06-.13-.15-.19-.06-.04-.19-.06-.13-.03-.27-.04-.14-.01-.27-.01-.13-.01-.19-.01-.43 0-.87.05-.43.04-.87.11.03.36.04.7v.67q0 .56.04 1.12.15 0 .53-.02.37-.02.78-.06.41-.04.77-.12.37-.07.5-.2.21-.2.25-.49.04-.28.04-.56Zm42.17 5.92-1.78.27q-.18-.59-.37-1.19-.19-.59-.36-1.18l-2.89.1-.36 1.56h-1.81l.34-3.96q.18-1.97.34-3.95.85-.14 1.69-.24.83-.09 1.69-.09 1.04 0 2.09.04l.36 2.43q.19 1.21.39 2.43.14.96.31 1.9.17.94.36 1.88Zm-5.17-3.64 2.25-.06q-.02-.1-.06-.39-.05-.29-.11-.61t-.13-.59q-.08-.26-.15-.31-.02-.01-.11-.02l-.19-.02q-.1-.02-.19-.02h-.29q-.1 0-.21.01-.11.01-.21.03-.1.02-.14.06-.02.01-.05.15-.04.14-.09.35-.06.2-.11.44-.05.23-.1.44l-.07.36q-.03.16-.04.18Zm41.84 1.2.18 2.19q-1.4.1-2.77.2-1.38.09-2.77.17-.06-2.24-.1-4.45-.03-2.2-.13-4.45.79-.02 1.55-.05.76-.04 1.53-.09-.12.86-.24 1.74-.11.87-.17 1.75-.04.74-.07 1.47-.03.73-.05 1.47.77.02 1.53.02.75 0 1.51.03Zm40.07.42q0 .56-.27.91-.27.34-.76.55-.41.18-1.03.28-.62.1-1.29.14-.67.04-1.31.05-.65.01-1.08.01-.74 0-1.46-.02t-1.46-.07q.03-1.2-.07-2.37.88.03 1.75.04l1.75.04q.34.02.69.03.34.01.7.01h.17q.12 0 .25-.01t.24-.04q.11-.02.17-.07.04-.05.06-.13.01-.09.01-.16 0-.13-.04-.31-.03-.18-.1-.3-.01-.01-.08-.02-.06-.02-.15-.02-.08-.01-.15-.01-.07-.01-.08-.01-.75-.06-1.49-.08-.75-.02-1.5-.08-.34-.04-.7-.07-.35-.04-.66-.13-.29-.08-.5-.37-.2-.29-.32-.66-.13-.37-.18-.74-.05-.38-.05-.63 0-.43.08-.81.08-.38.26-.71.19-.32.47-.58.28-.25.69-.41.7-.27 1.5-.38.81-.1 1.54-.1.87 0 1.72.1.84.11 1.68.27-.01.34-.01.68-.01.33-.01.67t.03.69l.08.68-2.23.04q-1.1.02-2.23.07-.14 0-.38.01t-.46.03q-.22.01-.39.03l-.16.01q-.06.13-.07.26-.01.14-.01.28v.17q.01.11.05.17.02.01.2.03.19.03.42.05.23.02.43.05.21.02.25.02.39.03.91.08t1.07.11q.54.06 1.05.14.5.09.88.21.34.12.62.37.29.25.5.58.21.34.34.71.12.37.12.72Z" class="color000 svgShape"/></mask></svg></svg>
